<?xml version="1.0" standalone="no"?>
<!DOCTYPE svg PUBLIC "-//W3C//DTD SVG 20010904//EN"
 "http://www.w3.org/TR/2001/REC-SVG-20010904/DTD/svg10.dtd">
<svg version="1.0" xmlns="http://www.w3.org/2000/svg"
 width="880.000000pt" height="880.000000pt" viewBox="0 0 880.000000 880.000000"
 preserveAspectRatio="xMidYMid meet">
<metadata>
Created by potrace 1.14, written by Peter Selinger 2001-2017
</metadata>
<g transform="translate(0.000000,880.000000) scale(0.100000,-0.100000)"
fill="#000000" stroke="none">
<path d="M405 8788 c-12 -30 2 -3840 13 -3943 82 -705 221 -1191 502 -1760
270 -547 617 -1023 1084 -1490 639 -638 1464 -1198 2284 -1550 l112 -49 113
49 c819 352 1645 913 2283 1550 467 467 814 943 1084 1490 281 569 420 1055
502 1760 8 71 12 651 15 2023 l4 1922 -3980 0 c-2189 0 -3986 3 -3995 6 -9 3
-18 0 -21 -8z m4060 -695 c101 -25 192 -79 276 -163 121 -121 179 -261 179
-430 -1 -223 -87 -376 -305 -540 -140 -105 -129 -82 -133 -300 -4 -214 4 -200
-99 -200 l-51 0 -8 77 c-8 87 2 312 16 349 6 15 15 22 25 18 10 -4 15 0 15 14
0 14 33 46 105 102 185 143 254 230 290 365 67 258 -117 546 -374 585 -129 20
-187 30 -211 37 -25 6 -25 6 -6 -15 18 -21 18 -21 -10 -28 -51 -12 -138 -61
-188 -105 -71 -62 -117 -141 -153 -259 -6 -20 -14 -5 -54 92 l-31 77 47 70
c147 222 405 320 670 254z m-62 -223 c14 -28 17 -49 13 -100 -3 -36 -8 -76
-12 -90 -7 -25 -7 -25 25 5 l33 30 -18 -40 c-10 -22 -27 -53 -38 -69 -18 -26
-20 -27 -26 -10 -18 49 -21 114 -6 141 28 56 30 97 5 136 -19 29 -26 33 -41
24 -14 -9 -21 -8 -32 8 -25 32 -19 36 32 17 35 -13 52 -26 65 -52z m-53 -59
c0 -12 -11 -45 -24 -72 -23 -45 -24 -51 -11 -76 17 -32 20 -83 5 -83 -18 0
-99 88 -106 114 -7 28 -44 37 -44 11 0 -48 73 -132 155 -180 15 -9 17 -19 11
-68 l-8 -58 -23 43 c-12 24 -34 66 -47 94 -15 29 -45 67 -71 88 -76 62 -84
137 -18 170 26 14 30 14 35 0 3 -9 6 -28 6 -42 0 -54 14 -55 59 -7 47 51 64
88 56 119 -5 18 -3 17 9 -4 9 -14 15 -36 16 -49z m208 -88 c-15 -16 -36 -52
-47 -82 -11 -30 -33 -68 -48 -84 l-28 -30 63 6 c34 4 62 5 62 2 0 -9 -59 -35
-102 -44 -25 -6 -52 -13 -61 -17 -35 -13 -18 41 27 88 24 25 46 58 50 74 4 16
21 43 38 61 17 17 27 36 24 42 -5 7 3 11 20 11 l28 0 -26 -27z m-770 -147 c20
-35 21 -40 8 -55 -14 -15 -11 -21 24 -61 22 -25 39 -53 40 -63 0 -26 55 -102
93 -130 98 -74 226 -48 272 54 29 64 14 103 -64 161 -64 48 -64 48 -31 48 23
0 31 -4 27 -14 -4 -9 9 -19 38 -30 59 -23 74 -44 86 -119 10 -63 9 -67 -17
-107 -15 -23 -41 -48 -58 -57 -47 -25 -131 -20 -210 12 -46 18 -71 24 -78 17
-14 -14 -2 -31 29 -43 22 -8 23 -12 12 -25 -24 -30 24 -54 228 -113 48 -14 82
-31 102 -52 39 -38 39 -49 1 -49 -17 0 -44 -7 -60 -15 -29 -15 -31 -14 -82 22
l-53 38 38 3 c24 2 54 -4 80 -17 35 -18 44 -19 55 -7 24 24 -38 58 -122 66
-56 6 -84 15 -134 44 -34 20 -67 34 -72 31 -21 -13 -8 -32 39 -60 27 -15 52
-36 54 -46 3 -9 32 -39 66 -65 68 -53 106 -115 95 -158 -5 -20 -12 -26 -34
-26 -16 0 -30 -5 -32 -12 -3 -7 -10 -8 -17 -4 -9 6 -4 14 18 27 40 24 48 59
24 101 -21 36 -67 72 -169 133 -36 22 -99 72 -139 110 -152 148 -198 340 -133
556 l11 40 21 -48 c12 -27 31 -66 44 -87z m842 -13 c-1 -19 -19 -35 -30 -28
-10 6 -9 11 5 22 22 15 25 16 25 6z m1879 -260 l68 -208 219 -5 219 -5 -176
-128 -176 -129 63 -196 c35 -109 66 -205 70 -215 3 -9 -75 41 -174 113 -99 71
-183 130 -186 130 -5 0 -301 -211 -353 -252 -9 -8 62 229 112 371 8 24 13 47
10 52 -3 4 -82 63 -176 131 l-171 123 216 5 c124 3 219 9 224 15 4 6 37 101
73 211 35 111 66 200 68 199 2 -2 33 -98 70 -212z m-2498 137 c71 0 76 -13 24
-59 -38 -33 -84 -41 -104 -17 -10 11 -4 13 31 9 49 -4 72 6 62 30 -4 12 -14
15 -33 11 -33 -7 -94 22 -131 61 l-25 27 59 -31 c46 -25 70 -31 117 -31z m568
44 c-7 -8 -30 -24 -52 -35 -39 -21 -50 -38 -91 -151 -24 -65 -88 -119 -179
-152 -61 -22 -79 -25 -122 -17 -32 5 -40 9 -22 10 123 5 203 79 247 227 14 47
44 69 117 84 27 6 62 19 78 30 37 23 41 24 24 4z m-311 -634 c29 -28 28 -71
-3 -108 -29 -34 -63 -46 -97 -33 -23 10 -23 10 4 10 51 2 79 56 60 117 -12 40
2 46 36 14z m295 -471 c44 -12 48 -39 7 -50 -40 -11 -291 -10 -332 2 -47 12
-49 35 -5 48 45 13 284 13 330 0z m-93 -2244 l0 -2105 -70 0 -70 0 0 2105 0
2105 70 0 70 0 0 -2105z m-2150 1094 c36 -5 112 -30 170 -55 126 -54 173 -59
207 -20 13 15 23 34 23 42 0 8 5 14 10 14 6 0 10 -74 10 -202 0 -112 3 -220 6
-240 9 -55 -10 -47 -25 11 -32 125 -111 242 -215 316 -88 62 -162 88 -256 89
-97 1 -166 -23 -220 -75 -51 -50 -71 -96 -71 -164 0 -130 82 -204 410 -370
324 -164 444 -285 474 -475 22 -145 -27 -282 -141 -392 -117 -113 -221 -152
-407 -152 -114 0 -125 2 -225 38 -203 73 -225 73 -296 -1 l-44 -45 0 291 c0
160 2 291 5 291 2 0 9 -19 15 -42 68 -256 239 -440 452 -484 217 -46 407 74
408 256 0 136 -82 221 -346 359 -210 110 -259 139 -337 199 -142 108 -212 268
-187 429 41 262 293 429 580 382z m4300 1 c69 -7 136 -24 241 -60 81 -28 161
-50 178 -50 42 0 76 24 106 74 l25 41 0 -270 0 -270 -44 90 c-75 156 -174 262
-309 331 -92 47 -165 64 -273 64 -281 0 -457 -172 -523 -512 -55 -283 -28
-599 66 -798 81 -170 251 -270 458 -270 73 0 121 8 218 36 l57 17 -1 226 c0
148 -4 238 -12 260 -14 39 -46 66 -103 86 -35 13 -2 14 306 13 228 0 330 -3
300 -9 -50 -10 -83 -31 -114 -73 -20 -25 -21 -44 -24 -251 l-4 -223 -66 -25
c-299 -111 -676 -138 -911 -65 -234 72 -445 253 -532 456 -64 148 -78 373 -35
544 40 159 124 299 244 409 199 183 453 260 752 229z m-2038 -3291 c24 -13 18
-32 -13 -40 -13 -4 -85 -7 -159 -8 -167 -1 -243 17 -197 46 34 22 328 24 369
2z m-29 -195 c19 -75 48 -128 83 -151 24 -16 24 -16 5 -30 -25 -17 -101 -123
-130 -181 -12 -23 -37 -89 -56 -145 l-35 -102 0 303 c0 295 0 302 -20 302 -20
0 -20 -7 -20 -297 l-1 -298 -28 85 c-45 139 -136 298 -189 331 -15 10 -13 15
20 50 34 36 78 140 78 185 0 11 27 14 139 14 l138 0 16 -66z"/>
</g>
</svg>
